<svg width="375" height="812" viewBox="0 0 375 812" fill="none" xmlns="http://www.w3.org/2000/svg">
<rect width="375" height="812" fill="#F1F5F9"/>
<path d="M32 55C29.4288 55 26.9154 55.7624 24.7776 57.1909C22.6398 58.6194 20.9735 60.6497 19.9896 63.0251C19.0056 65.4006 18.7482 68.0144 19.2498 70.5362C19.7514 73.0579 20.9895 75.3743 22.8076 77.1924C24.6257 79.0105 26.9421 80.2486 29.4638 80.7502C31.9856 81.2518 34.5994 80.9944 36.9749 80.0104C39.3503 79.0265 41.3807 77.3603 42.8091 75.2224C44.2376 73.0846 45 70.5712 45 68C44.9964 64.5533 43.6256 61.2488 41.1884 58.8116C38.7512 56.3744 35.4467 55.0036 32 55ZM34.7075 72.2925C34.8004 72.3854 34.8741 72.4957 34.9244 72.6171C34.9747 72.7385 35.0006 72.8686 35.0006 73C35.0006 73.1314 34.9747 73.2615 34.9244 73.3829C34.8741 73.5043 34.8004 73.6146 34.7075 73.7075C34.6146 73.8004 34.5043 73.8741 34.3829 73.9244C34.2615 73.9747 34.1314 74.0006 34 74.0006C33.8686 74.0006 33.7385 73.9747 33.6171 73.9244C33.4957 73.8741 33.3854 73.8004 33.2925 73.7075L28.2925 68.7075C28.1995 68.6146 28.1258 68.5043 28.0754 68.3829C28.0251 68.2615 27.9992 68.1314 27.9992 68C27.9992 67.8686 28.0251 67.7385 28.0754 67.6171C28.1258 67.4957 28.1995 67.3854 28.2925 67.2925L33.2925 62.2925C33.3854 62.1996 33.4957 62.1259 33.6171 62.0756C33.7385 62.0253 33.8686 61.9994 34 61.9994C34.1314 61.9994 34.2615 62.0253 34.3829 62.0756C34.5043 62.1259 34.6146 62.1996 34.7075 62.2925C34.8004 62.3854 34.8741 62.4957 34.9244 62.6171C34.9747 62.7385 35.0006 62.8686 35.0006 63C35.0006 63.1314 34.9747 63.2615 34.9244 63.3829C34.8741 63.5043 34.8004 63.6146 34.7075 63.7075L30.4138 68L34.7075 72.2925Z" fill="#4338CA"/>
<path d="M148.322 75L144.576 61.9091H147.599L149.766 71.005H149.875L152.266 61.9091H154.854L157.239 71.0241H157.354L159.521 61.9091H162.544L158.798 75H156.101L153.608 66.4411H153.506L151.019 75H148.322ZM164.01 75V65.1818H166.733V75H164.01ZM165.378 63.9162C164.973 63.9162 164.626 63.782 164.336 63.5135C164.051 63.2408 163.908 62.9148 163.908 62.5355C163.908 62.1605 164.051 61.8388 164.336 61.5703C164.626 61.2976 164.973 61.1612 165.378 61.1612C165.783 61.1612 166.128 61.2976 166.414 61.5703C166.704 61.8388 166.848 62.1605 166.848 62.5355C166.848 62.9148 166.704 63.2408 166.414 63.5135C166.128 63.782 165.783 63.9162 165.378 63.9162ZM174.173 65.1818V67.2273H168.26V65.1818H174.173ZM169.603 62.8295H172.326V71.983C172.326 72.2344 172.364 72.4304 172.441 72.571C172.517 72.7074 172.624 72.8033 172.76 72.8587C172.901 72.9141 173.063 72.9418 173.246 72.9418C173.374 72.9418 173.502 72.9311 173.63 72.9098C173.757 72.8842 173.855 72.8651 173.924 72.8523L174.352 74.8786C174.216 74.9212 174.024 74.9702 173.777 75.0256C173.529 75.0852 173.229 75.1214 172.875 75.1342C172.219 75.1598 171.644 75.0724 171.149 74.8722C170.659 74.6719 170.278 74.3608 170.005 73.9389C169.733 73.517 169.598 72.9844 169.603 72.3409V62.8295ZM178.917 69.3239V75H176.194V61.9091H178.84V66.9141H178.955C179.177 66.3345 179.535 65.8807 180.029 65.5526C180.523 65.2202 181.143 65.054 181.889 65.054C182.571 65.054 183.165 65.2031 183.672 65.5014C184.184 65.7955 184.58 66.2195 184.861 66.7734C185.147 67.3232 185.287 67.9815 185.283 68.7486V75H182.56V69.2344C182.564 68.6293 182.411 68.1584 182.1 67.8217C181.793 67.4851 181.363 67.3168 180.809 67.3168C180.438 67.3168 180.11 67.3956 179.824 67.5533C179.543 67.7109 179.321 67.9411 179.16 68.2436C179.002 68.5419 178.921 68.902 178.917 69.3239ZM191.08 75.1598C190.334 75.1598 189.659 74.968 189.054 74.5845C188.453 74.1967 187.976 73.6278 187.622 72.8778C187.272 72.1236 187.098 71.1989 187.098 70.1037C187.098 68.9787 187.279 68.0433 187.641 67.2976C188.003 66.5476 188.485 65.9872 189.086 65.6165C189.691 65.2415 190.353 65.054 191.074 65.054C191.623 65.054 192.081 65.1477 192.448 65.3352C192.819 65.5185 193.117 65.7486 193.343 66.0256C193.573 66.2983 193.748 66.5668 193.867 66.831H193.95V61.9091H196.667V75H193.982V73.4276H193.867C193.739 73.7003 193.558 73.9709 193.324 74.2393C193.093 74.5036 192.793 74.723 192.422 74.8977C192.056 75.0724 191.608 75.1598 191.08 75.1598ZM191.943 72.9929C192.382 72.9929 192.753 72.8736 193.055 72.6349C193.362 72.392 193.596 72.0533 193.758 71.6186C193.924 71.1839 194.008 70.6747 194.008 70.0909C194.008 69.5071 193.927 69 193.765 68.5696C193.603 68.1392 193.368 67.8068 193.062 67.5724C192.755 67.3381 192.382 67.2209 191.943 67.2209C191.495 67.2209 191.118 67.3423 190.812 67.5852C190.505 67.8281 190.272 68.1648 190.115 68.5952C189.957 69.0256 189.878 69.5241 189.878 70.0909C189.878 70.6619 189.957 71.1669 190.115 71.6058C190.277 72.0405 190.509 72.3814 190.812 72.6286C191.118 72.8714 191.495 72.9929 191.943 72.9929ZM198.941 75V65.1818H201.581V66.8949H201.684C201.863 66.2855 202.163 65.8253 202.585 65.5142C203.007 65.1989 203.493 65.0412 204.042 65.0412C204.179 65.0412 204.326 65.0497 204.483 65.0668C204.641 65.0838 204.779 65.1072 204.899 65.1371V67.5533C204.771 67.5149 204.594 67.4808 204.368 67.451C204.142 67.4212 203.936 67.4062 203.748 67.4062C203.348 67.4062 202.99 67.4936 202.674 67.6683C202.363 67.8388 202.116 68.0774 201.933 68.3842C201.754 68.6911 201.664 69.0447 201.664 69.4453V75H198.941ZM208.861 75.1854C208.235 75.1854 207.676 75.0767 207.186 74.8594C206.696 74.6378 206.309 74.3118 206.023 73.8814C205.742 73.4467 205.601 72.9055 205.601 72.2578C205.601 71.7124 205.701 71.2543 205.902 70.8835C206.102 70.5128 206.375 70.2145 206.72 69.9886C207.065 69.7628 207.457 69.5923 207.896 69.4773C208.339 69.3622 208.804 69.2812 209.289 69.2344C209.86 69.1747 210.321 69.1193 210.67 69.0682C211.02 69.0128 211.273 68.9318 211.431 68.8253C211.588 68.7187 211.667 68.5611 211.667 68.3523V68.3139C211.667 67.9091 211.539 67.5959 211.284 67.3743C211.032 67.1527 210.674 67.0419 210.21 67.0419C209.72 67.0419 209.33 67.1506 209.04 67.3679C208.75 67.581 208.559 67.8494 208.465 68.1733L205.946 67.9688C206.074 67.3722 206.326 66.8565 206.701 66.4219C207.076 65.983 207.559 65.6463 208.152 65.4119C208.748 65.1733 209.439 65.054 210.223 65.054C210.768 65.054 211.29 65.1179 211.789 65.2457C212.292 65.3736 212.737 65.5717 213.125 65.8402C213.517 66.1087 213.826 66.4538 214.051 66.8757C214.277 67.2933 214.39 67.794 214.39 68.3778V75H211.808V73.6385H211.731C211.573 73.9453 211.363 74.2159 211.098 74.4503C210.834 74.6804 210.517 74.8615 210.146 74.9936C209.775 75.1214 209.347 75.1854 208.861 75.1854ZM209.641 73.3061C210.042 73.3061 210.395 73.2273 210.702 73.0696C211.009 72.9077 211.25 72.6903 211.424 72.4176C211.599 72.1449 211.686 71.8359 211.686 71.4908V70.4489C211.601 70.5043 211.484 70.5554 211.335 70.6023C211.19 70.6449 211.026 70.6854 210.843 70.7237C210.659 70.7578 210.476 70.7898 210.293 70.8196C210.11 70.8452 209.944 70.8686 209.794 70.8899C209.475 70.9368 209.196 71.0114 208.957 71.1136C208.718 71.2159 208.533 71.3544 208.401 71.5291C208.269 71.6996 208.203 71.9126 208.203 72.1683C208.203 72.5391 208.337 72.8224 208.605 73.0185C208.878 73.2102 209.223 73.3061 209.641 73.3061ZM218.476 75L215.804 65.1818H218.559L220.08 71.7784H220.17L221.755 65.1818H224.459L226.069 71.7401H226.152L227.648 65.1818H230.397L227.731 75H224.848L223.161 68.8253H223.04L221.352 75H218.476Z" fill="#111827"/>
<rect x="16" y="108" width="343" height="328" rx="12" fill="white"/>
<rect x="32" y="140" width="42" height="42" rx="21" fill="#111827"/>
<g clip-path="url(#clip0_85_1948)">
<path d="M61.6006 153.513L58.7082 154.985L44.7651 162.089C44.7142 161.733 44.6941 161.368 44.6941 161.003C44.7046 156.416 48.4285 152.702 53.0154 152.702C54.4256 152.702 55.8166 153.067 57.0541 153.757L58.7082 152.915L58.952 152.793C54.416 149.494 48.0733 150.509 44.7853 155.036C43.5267 156.771 42.847 158.861 42.847 161.003C42.847 161.256 42.8576 161.52 42.8778 161.774C42.9392 162.515 42.5427 163.215 41.8726 163.559L41 164.007V166.076L43.567 164.767L44.3994 164.341L45.2211 163.925L59.9158 156.436L61.5699 155.594L64.9798 153.859V151.778L61.6006 153.513Z" fill="white"/>
<path d="M64.9894 155.928L46.0534 165.569L44.3994 166.411L41 168.146V170.216L44.3792 168.501L47.2717 167.03L61.2349 159.916C61.2858 160.282 61.3059 160.647 61.3059 161.012C61.3059 165.599 57.5821 169.314 52.9942 169.314C51.5734 169.314 50.1728 168.948 48.9354 168.248L48.8336 168.299L47.0384 169.212C51.5744 172.5 57.9171 171.495 61.2147 166.959C62.4733 165.223 63.153 163.143 63.153 161.002C63.153 160.738 63.1424 160.484 63.1222 160.22C63.0618 159.479 63.4573 158.779 64.1264 158.435L64.999 157.988V155.928H64.9894Z" fill="white"/>
</g>
<path d="M88.9091 143.364L91.4716 147.625H91.5625L94.1364 143.364H96.5398L92.9545 149.182L96.5966 155H94.1534L91.5625 150.767H91.4716L88.8807 155H86.4489L90.125 149.182L86.4943 143.364H88.9091ZM98.1946 155V143.364H100.303V153.233H105.428V155H98.1946ZM107.257 143.364H109.837L113.291 151.795H113.428L116.882 143.364H119.462V155H117.439V147.006H117.331L114.115 154.966H112.604L109.388 146.989H109.28V155H107.257V143.364Z" fill="#111827"/>
<path d="M91.5341 166.364V178H89.7727V168.125H89.7045L86.9205 169.943V168.261L89.8239 166.364H91.5341ZM94.6818 178V176.727L98.6193 172.648C99.0398 172.205 99.3864 171.816 99.6591 171.483C99.9356 171.146 100.142 170.826 100.278 170.523C100.415 170.22 100.483 169.898 100.483 169.557C100.483 169.17 100.392 168.837 100.21 168.557C100.028 168.273 99.7803 168.055 99.4659 167.903C99.1515 167.748 98.7973 167.67 98.4034 167.67C97.9867 167.67 97.6231 167.756 97.3125 167.926C97.0019 168.097 96.7633 168.337 96.5966 168.648C96.4299 168.958 96.3466 169.322 96.3466 169.739H94.6705C94.6705 169.03 94.8333 168.411 95.1591 167.881C95.4848 167.35 95.9318 166.939 96.5 166.648C97.0682 166.352 97.714 166.205 98.4375 166.205C99.1686 166.205 99.8125 166.35 100.369 166.642C100.93 166.93 101.367 167.324 101.682 167.824C101.996 168.32 102.153 168.881 102.153 169.506C102.153 169.938 102.072 170.36 101.909 170.773C101.75 171.186 101.472 171.646 101.074 172.153C100.676 172.657 100.123 173.269 99.4148 173.989L97.1023 176.409V176.494H102.341V178H94.6818ZM105.636 178.108C105.326 178.108 105.059 177.998 104.835 177.778C104.612 177.555 104.5 177.286 104.5 176.972C104.5 176.661 104.612 176.396 104.835 176.176C105.059 175.953 105.326 175.841 105.636 175.841C105.947 175.841 106.214 175.953 106.438 176.176C106.661 176.396 106.773 176.661 106.773 176.972C106.773 177.18 106.72 177.371 106.614 177.545C106.511 177.716 106.375 177.852 106.205 177.955C106.034 178.057 105.845 178.108 105.636 178.108ZM112.034 166.364V178H110.273V168.125H110.205L107.42 169.943V168.261L110.324 166.364H112.034ZM119.244 178.159C118.725 178.152 118.214 178.057 117.71 177.875C117.21 177.693 116.756 177.39 116.347 176.966C115.938 176.542 115.61 175.972 115.364 175.256C115.121 174.54 115 173.646 115 172.574C115 171.559 115.1 170.657 115.301 169.869C115.506 169.081 115.799 168.417 116.182 167.875C116.564 167.33 117.027 166.915 117.568 166.631C118.11 166.347 118.718 166.205 119.392 166.205C120.085 166.205 120.701 166.341 121.239 166.614C121.777 166.886 122.212 167.263 122.545 167.744C122.883 168.225 123.097 168.773 123.188 169.386H121.455C121.337 168.902 121.104 168.506 120.756 168.199C120.407 167.892 119.953 167.739 119.392 167.739C118.54 167.739 117.875 168.11 117.398 168.852C116.924 169.595 116.686 170.627 116.682 171.949H116.767C116.968 171.619 117.214 171.339 117.506 171.108C117.801 170.873 118.131 170.693 118.494 170.568C118.862 170.439 119.248 170.375 119.653 170.375C120.328 170.375 120.938 170.54 121.483 170.869C122.032 171.195 122.47 171.646 122.795 172.222C123.121 172.797 123.284 173.456 123.284 174.199C123.284 174.941 123.116 175.614 122.778 176.216C122.445 176.818 121.975 177.295 121.369 177.648C120.763 177.996 120.055 178.167 119.244 178.159ZM119.239 176.682C119.686 176.682 120.085 176.572 120.438 176.352C120.79 176.133 121.068 175.837 121.273 175.466C121.477 175.095 121.58 174.68 121.58 174.222C121.58 173.775 121.479 173.367 121.278 173C121.081 172.633 120.809 172.341 120.46 172.125C120.116 171.909 119.722 171.801 119.278 171.801C118.941 171.801 118.629 171.866 118.341 171.994C118.057 172.123 117.807 172.301 117.591 172.528C117.375 172.756 117.205 173.017 117.08 173.312C116.958 173.604 116.898 173.913 116.898 174.239C116.898 174.674 116.998 175.078 117.199 175.449C117.403 175.82 117.682 176.119 118.034 176.347C118.39 176.57 118.792 176.682 119.239 176.682Z" fill="#4338CA"/>
<rect x="307" y="143" width="36" height="36" rx="4" fill="white"/>
<path d="M333.7 158.325L325.575 166.45C325.499 166.525 325.409 166.585 325.311 166.626C325.212 166.667 325.106 166.688 325 166.688C324.893 166.688 324.787 166.667 324.689 166.626C324.59 166.585 324.5 166.525 324.425 166.45L316.3 158.325C316.186 158.211 316.109 158.066 316.077 157.909C316.046 157.751 316.062 157.588 316.123 157.439C316.185 157.29 316.289 157.163 316.423 157.074C316.557 156.985 316.714 156.937 316.875 156.938H333.125C333.285 156.937 333.443 156.985 333.576 157.074C333.71 157.163 333.814 157.29 333.876 157.439C333.937 157.588 333.954 157.751 333.922 157.909C333.891 158.066 333.813 158.211 333.7 158.325Z" fill="#4338CA"/>
<path d="M33.233 229V218.818H36.6733C37.4688 218.818 38.1217 218.954 38.6321 219.226C39.1425 219.494 39.5204 219.864 39.7656 220.335C40.0109 220.805 40.1335 221.34 40.1335 221.94C40.1335 222.54 40.0109 223.072 39.7656 223.536C39.5204 224 39.1442 224.365 38.6371 224.63C38.13 224.892 37.482 225.023 36.6932 225.023H33.9091V223.909H36.6534C37.197 223.909 37.6345 223.83 37.9659 223.67C38.3007 223.511 38.5426 223.286 38.6918 222.994C38.8442 222.699 38.9205 222.348 38.9205 221.94C38.9205 221.533 38.8442 221.176 38.6918 220.871C38.5393 220.567 38.2957 220.331 37.9609 220.165C37.6262 219.996 37.1837 219.912 36.6335 219.912H34.4659V229H33.233ZM38.0256 224.426L40.5312 229H39.0994L36.6335 224.426H38.0256ZM45.1766 229.159C44.4408 229.159 43.8061 228.997 43.2725 228.672C42.7422 228.344 42.3329 227.886 42.0445 227.3C41.7595 226.71 41.617 226.024 41.617 225.241C41.617 224.459 41.7595 223.77 42.0445 223.173C42.3329 222.573 42.7339 222.106 43.2476 221.771C43.7647 221.433 44.3679 221.264 45.0573 221.264C45.455 221.264 45.8478 221.33 46.2356 221.463C46.6233 221.596 46.9763 221.811 47.2945 222.109C47.6127 222.404 47.8662 222.795 48.0552 223.283C48.2441 223.77 48.3385 224.37 48.3385 225.082V225.58H42.4522V224.565H47.1454C47.1454 224.134 47.0592 223.75 46.8868 223.412C46.7178 223.074 46.4759 222.807 46.161 222.612C45.8494 222.416 45.4815 222.318 45.0573 222.318C44.59 222.318 44.1856 222.434 43.8442 222.666C43.5062 222.895 43.246 223.193 43.0637 223.561C42.8814 223.929 42.7903 224.323 42.7903 224.744V225.42C42.7903 225.997 42.8897 226.486 43.0885 226.887C43.2907 227.285 43.5708 227.588 43.9287 227.797C44.2867 228.002 44.7027 228.105 45.1766 228.105C45.4849 228.105 45.7633 228.062 46.0118 227.976C46.2637 227.886 46.4808 227.754 46.6631 227.578C46.8454 227.399 46.9863 227.177 47.0857 226.912L48.2192 227.23C48.0999 227.615 47.8994 227.953 47.6177 228.244C47.3359 228.533 46.9879 228.758 46.5736 228.92C46.1593 229.08 45.6937 229.159 45.1766 229.159ZM53.2536 229.159C52.5377 229.159 51.9212 228.99 51.4042 228.652C50.8871 228.314 50.4894 227.848 50.211 227.255C49.9326 226.662 49.7934 225.984 49.7934 225.222C49.7934 224.446 49.9359 223.762 50.221 223.168C50.5093 222.572 50.9103 222.106 51.4241 221.771C51.9411 221.433 52.5443 221.264 53.2337 221.264C53.7707 221.264 54.2546 221.364 54.6854 221.562C55.1163 221.761 55.4693 222.04 55.7444 222.398C56.0195 222.756 56.1902 223.173 56.2565 223.651H55.0832C54.9937 223.303 54.7948 222.994 54.4866 222.726C54.1817 222.454 53.7707 222.318 53.2536 222.318C52.7962 222.318 52.3952 222.437 52.0505 222.676C51.7091 222.911 51.4423 223.245 51.2501 223.675C51.0611 224.103 50.9667 224.605 50.9667 225.182C50.9667 225.772 51.0595 226.286 51.2451 226.723C51.434 227.161 51.6992 227.5 52.0406 227.742C52.3852 227.984 52.7896 228.105 53.2536 228.105C53.5585 228.105 53.8353 228.052 54.0839 227.946C54.3325 227.84 54.5429 227.688 54.7153 227.489C54.8876 227.29 55.0102 227.051 55.0832 226.773H56.2565C56.1902 227.223 56.0261 227.629 55.7643 227.991C55.5058 228.349 55.1627 228.634 54.7352 228.846C54.3109 229.055 53.8171 229.159 53.2536 229.159ZM61.2014 229.159C60.4656 229.159 59.8309 228.997 59.2972 228.672C58.7669 228.344 58.3576 227.886 58.0693 227.3C57.7842 226.71 57.6417 226.024 57.6417 225.241C57.6417 224.459 57.7842 223.77 58.0693 223.173C58.3576 222.573 58.7587 222.106 59.2724 221.771C59.7894 221.433 60.3927 221.264 61.082 221.264C61.4798 221.264 61.8725 221.33 62.2603 221.463C62.6481 221.596 63.0011 221.811 63.3193 222.109C63.6374 222.404 63.891 222.795 64.0799 223.283C64.2688 223.77 64.3633 224.37 64.3633 225.082V225.58H58.4769V224.565H63.1701C63.1701 224.134 63.0839 223.75 62.9116 223.412C62.7426 223.074 62.5006 222.807 62.1857 222.612C61.8742 222.416 61.5063 222.318 61.082 222.318C60.6147 222.318 60.2104 222.434 59.869 222.666C59.5309 222.895 59.2707 223.193 59.0884 223.561C58.9061 223.929 58.815 224.323 58.815 224.744V225.42C58.815 225.997 58.9144 226.486 59.1133 226.887C59.3155 227.285 59.5955 227.588 59.9535 227.797C60.3115 228.002 60.7274 228.105 61.2014 228.105C61.5096 228.105 61.788 228.062 62.0366 227.976C62.2885 227.886 62.5056 227.754 62.6879 227.578C62.8702 227.399 63.011 227.177 63.1105 226.912L64.244 227.23C64.1247 227.615 63.9241 227.953 63.6424 228.244C63.3607 228.533 63.0127 228.758 62.5984 228.92C62.1841 229.08 61.7184 229.159 61.2014 229.159ZM66.1761 229V221.364H67.3494V229H66.1761ZM66.7727 220.091C66.544 220.091 66.3468 220.013 66.1811 219.857C66.0187 219.701 65.9375 219.514 65.9375 219.295C65.9375 219.077 66.0187 218.889 66.1811 218.734C66.3468 218.578 66.544 218.5 66.7727 218.5C67.0014 218.5 67.1969 218.578 67.3593 218.734C67.5251 218.889 67.6079 219.077 67.6079 219.295C67.6079 219.514 67.5251 219.701 67.3593 219.857C67.1969 220.013 67.0014 220.091 66.7727 220.091ZM75.7707 221.364L72.9468 229H71.7536L68.9298 221.364H70.2025L72.3105 227.449H72.39L74.498 221.364H75.7707ZM80.2756 229.159C79.5398 229.159 78.9051 228.997 78.3715 228.672C77.8412 228.344 77.4318 227.886 77.1435 227.3C76.8585 226.71 76.7159 226.024 76.7159 225.241C76.7159 224.459 76.8585 223.77 77.1435 223.173C77.4318 222.573 77.8329 222.106 78.3466 221.771C78.8637 221.433 79.4669 221.264 80.1563 221.264C80.554 221.264 80.9468 221.33 81.3345 221.463C81.7223 221.596 82.0753 221.811 82.3935 222.109C82.7117 222.404 82.9652 222.795 83.1542 223.283C83.3431 223.77 83.4375 224.37 83.4375 225.082V225.58H77.5512V224.565H82.2443C82.2443 224.134 82.1582 223.75 81.9858 223.412C81.8168 223.074 81.5748 222.807 81.26 222.612C80.9484 222.416 80.5805 222.318 80.1563 222.318C79.689 222.318 79.2846 222.434 78.9432 222.666C78.6051 222.895 78.345 223.193 78.1627 223.561C77.9804 223.929 77.8892 224.323 77.8892 224.744V225.42C77.8892 225.997 77.9887 226.486 78.1875 226.887C78.3897 227.285 78.6698 227.588 79.0277 227.797C79.3857 228.002 79.8016 228.105 80.2756 228.105C80.5838 228.105 80.8622 228.062 81.1108 227.976C81.3627 227.886 81.5798 227.754 81.7621 227.578C81.9444 227.399 82.0853 227.177 82.1847 226.912L83.3182 227.23C83.1989 227.615 82.9984 227.953 82.7166 228.244C82.4349 228.533 82.0869 228.758 81.6726 228.92C81.2583 229.08 80.7926 229.159 80.2756 229.159ZM85.2503 229V221.364H86.3839V222.517H86.4634C86.6026 222.139 86.8545 221.833 87.2191 221.597C87.5837 221.362 87.9946 221.244 88.452 221.244C88.5382 221.244 88.6459 221.246 88.7752 221.249C88.9045 221.253 89.0022 221.258 89.0685 221.264V222.457C89.0287 222.447 88.9376 222.433 88.7951 222.413C88.6559 222.389 88.5084 222.378 88.3526 222.378C87.9814 222.378 87.65 222.456 87.3583 222.612C87.0699 222.764 86.8412 222.976 86.6722 223.248C86.5065 223.516 86.4236 223.823 86.4236 224.168V229H85.2503ZM91.7538 218.818V219.713C91.7538 219.985 91.7041 220.275 91.6047 220.583C91.5086 220.888 91.366 221.185 91.1771 221.473C90.9915 221.758 90.7661 222.007 90.501 222.219L89.8646 221.702C90.0734 221.403 90.2541 221.094 90.4065 220.772C90.5623 220.447 90.6402 220.101 90.6402 219.733V218.818H91.7538ZM97.6607 223.074L96.6068 223.372C96.5405 223.196 96.4427 223.026 96.3134 222.86C96.1875 222.691 96.0151 222.552 95.7964 222.442C95.5776 222.333 95.2976 222.278 94.9562 222.278C94.4889 222.278 94.0994 222.386 93.7879 222.602C93.4796 222.814 93.3255 223.084 93.3255 223.412C93.3255 223.704 93.4316 223.934 93.6437 224.103C93.8558 224.272 94.1872 224.413 94.638 224.526L95.7715 224.804C96.4543 224.97 96.9631 225.223 97.2978 225.565C97.6326 225.903 97.7999 226.339 97.7999 226.872C97.7999 227.31 97.674 227.701 97.4221 228.045C97.1735 228.39 96.8255 228.662 96.3781 228.861C95.9306 229.06 95.4103 229.159 94.817 229.159C94.0381 229.159 93.3935 228.99 92.883 228.652C92.3726 228.314 92.0495 227.82 91.9136 227.17L93.0272 226.892C93.1333 227.303 93.3338 227.611 93.6288 227.817C93.9271 228.022 94.3165 228.125 94.7971 228.125C95.344 228.125 95.7782 228.009 96.0997 227.777C96.4245 227.542 96.5869 227.26 96.5869 226.932C96.5869 226.667 96.4941 226.445 96.3085 226.266C96.1229 226.083 95.8378 225.947 95.4533 225.858L94.1806 225.56C93.4813 225.394 92.9676 225.137 92.6394 224.789C92.3146 224.438 92.1522 223.999 92.1522 223.472C92.1522 223.041 92.2732 222.66 92.5151 222.328C92.7604 221.997 93.0935 221.737 93.5144 221.548C93.9387 221.359 94.4193 221.264 94.9562 221.264C95.7119 221.264 96.3051 221.43 96.736 221.761C97.1702 222.093 97.4784 222.53 97.6607 223.074ZM105.568 229L102.784 218.818H104.037L106.165 227.111H106.264L108.432 218.818H109.824L111.991 227.111H112.091L114.219 218.818H115.472L112.687 229H111.415L109.168 220.886H109.088L106.841 229H105.568ZM118.413 229.179C117.929 229.179 117.49 229.088 117.095 228.906C116.701 228.72 116.388 228.453 116.156 228.105C115.924 227.754 115.808 227.33 115.808 226.832C115.808 226.395 115.894 226.04 116.066 225.768C116.239 225.493 116.469 225.278 116.757 225.122C117.046 224.966 117.364 224.85 117.712 224.774C118.063 224.695 118.416 224.632 118.771 224.585C119.235 224.526 119.611 224.481 119.899 224.451C120.191 224.418 120.403 224.363 120.536 224.287C120.672 224.211 120.74 224.078 120.74 223.889V223.849C120.74 223.359 120.605 222.978 120.337 222.706C120.072 222.434 119.669 222.298 119.129 222.298C118.569 222.298 118.13 222.421 117.811 222.666C117.493 222.911 117.269 223.173 117.14 223.452L116.027 223.054C116.225 222.59 116.491 222.229 116.822 221.97C117.157 221.708 117.521 221.526 117.916 221.423C118.313 221.317 118.705 221.264 119.089 221.264C119.334 221.264 119.616 221.294 119.934 221.354C120.256 221.41 120.566 221.528 120.864 221.707C121.165 221.886 121.416 222.156 121.615 222.517C121.813 222.878 121.913 223.362 121.913 223.969V229H120.74V227.966H120.68C120.6 228.132 120.468 228.309 120.282 228.498C120.097 228.687 119.85 228.848 119.541 228.98C119.233 229.113 118.857 229.179 118.413 229.179ZM118.592 228.125C119.056 228.125 119.447 228.034 119.765 227.852C120.087 227.669 120.329 227.434 120.491 227.146C120.657 226.857 120.74 226.554 120.74 226.236V225.162C120.69 225.222 120.58 225.276 120.411 225.326C120.246 225.372 120.054 225.414 119.835 225.45C119.619 225.483 119.409 225.513 119.203 225.54C119.001 225.563 118.837 225.583 118.711 225.599C118.406 225.639 118.121 225.704 117.856 225.793C117.594 225.879 117.382 226.01 117.22 226.186C117.061 226.358 116.981 226.594 116.981 226.892C116.981 227.3 117.132 227.608 117.433 227.817C117.738 228.022 118.125 228.125 118.592 228.125ZM125.256 218.818V229H124.082V218.818H125.256ZM128.606 218.818V229H127.433V218.818H128.606ZM133.985 229.159C133.249 229.159 132.614 228.997 132.081 228.672C131.55 228.344 131.141 227.886 130.853 227.3C130.567 226.71 130.425 226.024 130.425 225.241C130.425 224.459 130.567 223.77 130.853 223.173C131.141 222.573 131.542 222.106 132.056 221.771C132.573 221.433 133.176 221.264 133.865 221.264C134.263 221.264 134.656 221.33 135.044 221.463C135.431 221.596 135.784 221.811 136.103 222.109C136.421 222.404 136.674 222.795 136.863 223.283C137.052 223.77 137.147 224.37 137.147 225.082V225.58H131.26V224.565H135.953C135.953 224.134 135.867 223.75 135.695 223.412C135.526 223.074 135.284 222.807 134.969 222.612C134.657 222.416 134.29 222.318 133.865 222.318C133.398 222.318 132.994 222.434 132.652 222.666C132.314 222.895 132.054 223.193 131.872 223.561C131.689 223.929 131.598 224.323 131.598 224.744V225.42C131.598 225.997 131.698 226.486 131.897 226.887C132.099 227.285 132.379 227.588 132.737 227.797C133.095 228.002 133.511 228.105 133.985 228.105C134.293 228.105 134.571 228.062 134.82 227.976C135.072 227.886 135.289 227.754 135.471 227.578C135.653 227.399 135.794 227.177 135.894 226.912L137.027 227.23C136.908 227.615 136.707 227.953 136.426 228.244C136.144 228.533 135.796 228.758 135.382 228.92C134.967 229.08 134.502 229.159 133.985 229.159ZM142.28 221.364V222.358H138.323V221.364H142.28ZM139.476 219.534H140.65V226.812C140.65 227.144 140.698 227.393 140.794 227.558C140.893 227.721 141.019 227.83 141.172 227.886C141.327 227.939 141.492 227.966 141.664 227.966C141.793 227.966 141.899 227.959 141.982 227.946C142.065 227.929 142.131 227.916 142.181 227.906L142.42 228.96C142.34 228.99 142.229 229.02 142.086 229.05C141.944 229.083 141.763 229.099 141.545 229.099C141.213 229.099 140.888 229.028 140.57 228.886C140.255 228.743 139.993 228.526 139.785 228.234C139.579 227.943 139.476 227.575 139.476 227.131V219.534ZM149.431 218.818V229H148.198V218.818H149.431ZM155.073 229H151.931V218.818H155.212C156.2 218.818 157.045 219.022 157.748 219.43C158.45 219.834 158.989 220.416 159.363 221.175C159.738 221.93 159.925 222.835 159.925 223.889C159.925 224.95 159.736 225.863 159.359 226.629C158.981 227.391 158.43 227.978 157.708 228.388C156.985 228.796 156.107 229 155.073 229ZM153.164 227.906H154.993C155.835 227.906 156.533 227.744 157.087 227.419C157.64 227.094 158.053 226.632 158.324 226.032C158.596 225.432 158.732 224.718 158.732 223.889C158.732 223.067 158.598 222.36 158.329 221.766C158.061 221.17 157.66 220.712 157.126 220.394C156.593 220.073 155.928 219.912 155.133 219.912H153.164V227.906Z" fill="#383C45"/>
<rect x="32.5" y="241.5" width="310" height="47" rx="3.5" fill="white"/>
<rect x="32.5" y="241.5" width="310" height="47" rx="3.5" stroke="#CDD3E0"/>
<path d="M49.321 269V258.091H55.9048V259.263H50.642V262.949H55.5639V264.121H50.642V267.828H55.9901V269H49.321ZM59.4025 264.078V269H58.1454V260.818H59.3599V262.097H59.4664C59.6582 261.681 59.9494 261.347 60.34 261.095C60.7306 260.839 61.2349 260.712 61.8528 260.712C62.4068 260.712 62.8915 260.825 63.307 261.053C63.7225 261.276 64.0456 261.617 64.2764 262.075C64.5073 262.53 64.6227 263.105 64.6227 263.801V269H63.3656V263.886C63.3656 263.244 63.1987 262.743 62.8649 262.384C62.5311 262.022 62.073 261.841 61.4906 261.841C61.0893 261.841 60.7306 261.928 60.4146 262.102C60.1021 262.276 59.8553 262.53 59.6742 262.864C59.4931 263.197 59.4025 263.602 59.4025 264.078ZM70.5081 260.818V261.884H66.268V260.818H70.5081ZM67.5038 258.858H68.7609V266.656C68.7609 267.011 68.8124 267.278 68.9154 267.455C69.0219 267.629 69.1569 267.746 69.3202 267.807C69.4871 267.864 69.6629 267.892 69.8476 267.892C69.986 267.892 70.0997 267.885 70.1885 267.871C70.2772 267.853 70.3483 267.839 70.4015 267.828L70.6572 268.957C70.572 268.989 70.453 269.021 70.3003 269.053C70.1476 269.089 69.9541 269.107 69.7197 269.107C69.3646 269.107 69.0166 269.03 68.6757 268.877C68.3383 268.725 68.0578 268.492 67.8341 268.18C67.6139 267.867 67.5038 267.473 67.5038 266.997V258.858ZM75.7716 269.17C74.9832 269.17 74.3032 268.996 73.7314 268.648C73.1632 268.297 72.7247 267.807 72.4157 267.178C72.1103 266.546 71.9576 265.811 71.9576 264.973C71.9576 264.135 72.1103 263.396 72.4157 262.757C72.7247 262.114 73.1544 261.614 73.7048 261.255C74.2588 260.893 74.9051 260.712 75.6437 260.712C76.0698 260.712 76.4907 260.783 76.9061 260.925C77.3216 261.067 77.6998 261.298 78.0407 261.617C78.3816 261.933 78.6533 262.352 78.8557 262.874C79.0581 263.396 79.1593 264.039 79.1593 264.803V265.335H72.8525V264.249H77.8809C77.8809 263.787 77.7886 263.375 77.6039 263.013C77.4228 262.651 77.1636 262.365 76.8262 262.155C76.4924 261.946 76.0983 261.841 75.6437 261.841C75.143 261.841 74.7098 261.965 74.344 262.214C73.9818 262.459 73.703 262.778 73.5077 263.173C73.3124 263.567 73.2147 263.989 73.2147 264.44V265.165C73.2147 265.783 73.3213 266.306 73.5343 266.736C73.751 267.162 74.051 267.487 74.4345 267.711C74.8181 267.931 75.2637 268.041 75.7716 268.041C76.1018 268.041 76.4001 267.995 76.6664 267.903C76.9363 267.807 77.1689 267.665 77.3642 267.477C77.5595 267.285 77.7105 267.047 77.817 266.763L79.0315 267.104C78.9037 267.516 78.6888 267.878 78.387 268.19C78.0851 268.499 77.7122 268.741 77.2684 268.915C76.8245 269.085 76.3255 269.17 75.7716 269.17ZM81.1016 269V260.818H82.3161V262.054H82.4013C82.5505 261.649 82.8204 261.321 83.211 261.069C83.6016 260.816 84.042 260.69 84.532 260.69C84.6244 260.69 84.7398 260.692 84.8783 260.696C85.0168 260.699 85.1215 260.705 85.1925 260.712V261.99C85.1499 261.979 85.0523 261.963 84.8996 261.942C84.7504 261.917 84.5924 261.905 84.4255 261.905C84.0278 261.905 83.6726 261.988 83.3601 262.155C83.0512 262.319 82.8062 262.546 82.6251 262.837C82.4475 263.125 82.3587 263.453 82.3587 263.822V269H81.1016ZM93.1134 269L90.1305 258.091H91.4728L93.7526 266.976H93.8592L96.1816 258.091H97.6731L99.9955 266.976H100.102L102.382 258.091H103.724L100.741 269H99.3776L96.97 260.307H96.8847L94.4771 269H93.1134ZM106.876 269.192C106.357 269.192 105.887 269.094 105.464 268.899C105.041 268.7 104.706 268.414 104.457 268.041C104.209 267.665 104.084 267.21 104.084 266.678C104.084 266.209 104.177 265.829 104.361 265.538C104.546 265.243 104.793 265.012 105.102 264.845C105.411 264.678 105.752 264.554 106.125 264.472C106.501 264.387 106.879 264.32 107.259 264.27C107.756 264.206 108.159 264.158 108.468 264.126C108.781 264.091 109.008 264.032 109.15 263.95C109.296 263.869 109.369 263.727 109.369 263.524V263.482C109.369 262.956 109.225 262.548 108.937 262.256C108.653 261.965 108.222 261.82 107.643 261.82C107.043 261.82 106.572 261.951 106.231 262.214C105.89 262.477 105.651 262.757 105.512 263.055L104.319 262.629C104.532 262.132 104.816 261.745 105.171 261.468C105.53 261.187 105.92 260.992 106.343 260.882C106.769 260.768 107.188 260.712 107.6 260.712C107.863 260.712 108.165 260.744 108.506 260.808C108.85 260.868 109.182 260.994 109.502 261.186C109.825 261.377 110.093 261.667 110.306 262.054C110.519 262.441 110.626 262.96 110.626 263.609V269H109.369V267.892H109.305C109.219 268.07 109.077 268.26 108.879 268.462C108.68 268.664 108.415 268.837 108.085 268.979C107.755 269.121 107.352 269.192 106.876 269.192ZM107.067 268.062C107.565 268.062 107.984 267.965 108.325 267.77C108.669 267.574 108.928 267.322 109.102 267.013C109.28 266.704 109.369 266.379 109.369 266.038V264.888C109.315 264.952 109.198 265.01 109.017 265.064C108.839 265.113 108.633 265.158 108.399 265.197C108.168 265.232 107.943 265.264 107.723 265.293C107.506 265.317 107.33 265.339 107.195 265.357C106.869 265.399 106.563 265.468 106.279 265.564C105.999 265.657 105.771 265.797 105.597 265.985C105.427 266.17 105.342 266.422 105.342 266.741C105.342 267.178 105.503 267.509 105.826 267.732C106.153 267.952 106.567 268.062 107.067 268.062ZM114.207 258.091V269H112.95V258.091H114.207ZM117.797 258.091V269H116.54V258.091H117.797ZM123.56 269.17C122.771 269.17 122.091 268.996 121.52 268.648C120.951 268.297 120.513 267.807 120.204 267.178C119.898 266.546 119.746 265.811 119.746 264.973C119.746 264.135 119.898 263.396 120.204 262.757C120.513 262.114 120.942 261.614 121.493 261.255C122.047 260.893 122.693 260.712 123.432 260.712C123.858 260.712 124.279 260.783 124.694 260.925C125.11 261.067 125.488 261.298 125.829 261.617C126.17 261.933 126.441 262.352 126.644 262.874C126.846 263.396 126.947 264.039 126.947 264.803V265.335H120.641V264.249H125.669C125.669 263.787 125.577 263.375 125.392 263.013C125.211 262.651 124.952 262.365 124.614 262.155C124.281 261.946 123.886 261.841 123.432 261.841C122.931 261.841 122.498 261.965 122.132 262.214C121.77 262.459 121.491 262.778 121.296 263.173C121.101 263.567 121.003 263.989 121.003 264.44V265.165C121.003 265.783 121.109 266.306 121.322 266.736C121.539 267.162 121.839 267.487 122.223 267.711C122.606 267.931 123.052 268.041 123.56 268.041C123.89 268.041 124.188 267.995 124.455 267.903C124.724 267.807 124.957 267.665 125.152 267.477C125.348 267.285 125.499 267.047 125.605 266.763L126.82 267.104C126.692 267.516 126.477 267.878 126.175 268.19C125.873 268.499 125.5 268.741 125.056 268.915C124.613 269.085 124.114 269.17 123.56 269.17ZM132.448 260.818V261.884H128.208V260.818H132.448ZM129.444 258.858H130.701V266.656C130.701 267.011 130.752 267.278 130.855 267.455C130.962 267.629 131.097 267.746 131.26 267.807C131.427 267.864 131.603 267.892 131.787 267.892C131.926 267.892 132.04 267.885 132.128 267.871C132.217 267.853 132.288 267.839 132.341 267.828L132.597 268.957C132.512 268.989 132.393 269.021 132.24 269.053C132.088 269.089 131.894 269.107 131.66 269.107C131.305 269.107 130.957 269.03 130.616 268.877C130.278 268.725 129.998 268.492 129.774 268.18C129.554 267.867 129.444 267.473 129.444 266.997V258.858ZM140.109 258.091V269H138.788V258.091H140.109ZM146.154 269H142.788V258.091H146.304C147.362 258.091 148.267 258.309 149.02 258.746C149.773 259.179 150.35 259.803 150.751 260.616C151.153 261.425 151.353 262.395 151.353 263.524C151.353 264.661 151.151 265.639 150.746 266.459C150.341 267.276 149.752 267.904 148.978 268.345C148.203 268.782 147.262 269 146.154 269ZM144.109 267.828H146.069C146.971 267.828 147.719 267.654 148.312 267.306C148.905 266.958 149.347 266.463 149.638 265.82C149.929 265.177 150.075 264.412 150.075 263.524C150.075 262.643 149.931 261.885 149.643 261.25C149.356 260.61 148.926 260.12 148.354 259.779C147.783 259.435 147.071 259.263 146.218 259.263H144.109V267.828Z" fill="#8791A7"/>
<path d="M33.233 328V317.818H39.3778V318.912H34.4659V322.352H39.0597V323.446H34.4659V326.906H39.4574V328H33.233ZM42.6423 323.406V328H41.4691V320.364H42.6026V321.557H42.702C42.881 321.169 43.1528 320.857 43.5173 320.622C43.8819 320.384 44.3526 320.264 44.9293 320.264C45.4463 320.264 45.8987 320.37 46.2865 320.582C46.6743 320.791 46.9759 321.109 47.1914 321.537C47.4068 321.961 47.5145 322.498 47.5145 323.148V328H46.3412V323.227C46.3412 322.627 46.1854 322.16 45.8739 321.825C45.5623 321.487 45.1348 321.318 44.5912 321.318C44.2167 321.318 43.8819 321.399 43.5869 321.562C43.2953 321.724 43.0649 321.961 42.8959 322.273C42.7269 322.584 42.6423 322.962 42.6423 323.406ZM53.0075 320.364V321.358H49.0501V320.364H53.0075ZM50.2035 318.534H51.3768V325.812C51.3768 326.144 51.4249 326.393 51.521 326.558C51.6205 326.721 51.7464 326.83 51.8989 326.886C52.0546 326.939 52.2187 326.966 52.391 326.966C52.5203 326.966 52.6264 326.959 52.7092 326.946C52.7921 326.929 52.8584 326.916 52.9081 326.906L53.1467 327.96C53.0672 327.99 52.9562 328.02 52.8136 328.05C52.6711 328.083 52.4905 328.099 52.2717 328.099C51.9403 328.099 51.6155 328.028 51.2973 327.886C50.9824 327.743 50.7206 327.526 50.5118 327.234C50.3063 326.943 50.2035 326.575 50.2035 326.131V318.534ZM57.9201 328.159C57.1843 328.159 56.5496 327.997 56.016 327.672C55.4857 327.344 55.0764 326.886 54.788 326.3C54.503 325.71 54.3605 325.024 54.3605 324.241C54.3605 323.459 54.503 322.77 54.788 322.173C55.0764 321.573 55.4774 321.106 55.9911 320.771C56.5082 320.433 57.1114 320.264 57.8008 320.264C58.1985 320.264 58.5913 320.33 58.9791 320.463C59.3668 320.596 59.7198 320.811 60.038 321.109C60.3562 321.404 60.6097 321.795 60.7987 322.283C60.9876 322.77 61.082 323.37 61.082 324.082V324.58H55.1957V323.565H59.8889C59.8889 323.134 59.8027 322.75 59.6303 322.412C59.4613 322.074 59.2194 321.807 58.9045 321.612C58.5929 321.416 58.225 321.318 57.8008 321.318C57.3335 321.318 56.9291 321.434 56.5877 321.666C56.2497 321.895 55.9895 322.193 55.8072 322.561C55.6249 322.929 55.5338 323.323 55.5338 323.744V324.42C55.5338 324.997 55.6332 325.486 55.832 325.887C56.0342 326.285 56.3143 326.588 56.6722 326.797C57.0302 327.002 57.4462 327.105 57.9201 327.105C58.2284 327.105 58.5068 327.062 58.7553 326.976C59.0072 326.886 59.2243 326.754 59.4066 326.578C59.5889 326.399 59.7298 326.177 59.8292 325.912L60.9627 326.23C60.8434 326.615 60.6429 326.953 60.3612 327.244C60.0794 327.533 59.7314 327.758 59.3171 327.92C58.9028 328.08 58.4372 328.159 57.9201 328.159ZM62.8948 328V320.364H64.0284V321.517H64.1079C64.2471 321.139 64.499 320.833 64.8636 320.597C65.2282 320.362 65.6392 320.244 66.0966 320.244C66.1827 320.244 66.2904 320.246 66.4197 320.249C66.549 320.253 66.6467 320.258 66.713 320.264V321.457C66.6733 321.447 66.5821 321.433 66.4396 321.413C66.3004 321.389 66.1529 321.378 65.9971 321.378C65.6259 321.378 65.2945 321.456 65.0028 321.612C64.7144 321.764 64.4858 321.976 64.3167 322.248C64.151 322.516 64.0681 322.823 64.0681 323.168V328H62.8948ZM71.6996 318.912V317.818H79.336V318.912H76.1343V328H74.9013V318.912H71.6996ZM83.1026 328.159C82.4132 328.159 81.8083 327.995 81.288 327.667C80.7709 327.339 80.3666 326.88 80.0749 326.29C79.7866 325.7 79.6424 325.01 79.6424 324.222C79.6424 323.426 79.7866 322.732 80.0749 322.138C80.3666 321.545 80.7709 321.085 81.288 320.756C81.8083 320.428 82.4132 320.264 83.1026 320.264C83.792 320.264 84.3952 320.428 84.9123 320.756C85.4326 321.085 85.837 321.545 86.1253 322.138C86.417 322.732 86.5628 323.426 86.5628 324.222C86.5628 325.01 86.417 325.7 86.1253 326.29C85.837 326.88 85.4326 327.339 84.9123 327.667C84.3952 327.995 83.792 328.159 83.1026 328.159ZM83.1026 327.105C83.6263 327.105 84.0571 326.971 84.3952 326.702C84.7333 326.434 84.9835 326.081 85.1459 325.643C85.3083 325.206 85.3895 324.732 85.3895 324.222C85.3895 323.711 85.3083 323.236 85.1459 322.795C84.9835 322.354 84.7333 321.998 84.3952 321.726C84.0571 321.454 83.6263 321.318 83.1026 321.318C82.5789 321.318 82.1481 321.454 81.81 321.726C81.4719 321.998 81.2217 322.354 81.0593 322.795C80.8969 323.236 80.8157 323.711 80.8157 324.222C80.8157 324.732 80.8969 325.206 81.0593 325.643C81.2217 326.081 81.4719 326.434 81.81 326.702C82.1481 326.971 82.5789 327.105 83.1026 327.105ZM89.4756 325.216L89.4557 323.764H89.6943L93.0353 320.364H94.487L90.9273 323.963H90.8279L89.4756 325.216ZM88.3818 328V317.818H89.5551V328H88.3818ZM93.2341 328L90.2512 324.222L91.0864 323.406L94.7256 328H93.2341ZM98.9123 328.159C98.1765 328.159 97.5418 327.997 97.0082 327.672C96.4779 327.344 96.0686 326.886 95.7802 326.3C95.4952 325.71 95.3527 325.024 95.3527 324.241C95.3527 323.459 95.4952 322.77 95.7802 322.173C96.0686 321.573 96.4696 321.106 96.9834 320.771C97.5004 320.433 98.1036 320.264 98.793 320.264C99.1907 320.264 99.5835 320.33 99.9713 320.463C100.359 320.596 100.712 320.811 101.03 321.109C101.348 321.404 101.602 321.795 101.791 322.283C101.98 322.77 102.074 323.37 102.074 324.082V324.58H96.1879V323.565H100.881C100.881 323.134 100.795 322.75 100.623 322.412C100.454 322.074 100.212 321.807 99.8967 321.612C99.5852 321.416 99.2173 321.318 98.793 321.318C98.3257 321.318 97.9213 321.434 97.5799 321.666C97.2419 321.895 96.9817 322.193 96.7994 322.561C96.6171 322.929 96.526 323.323 96.526 323.744V324.42C96.526 324.997 96.6254 325.486 96.8243 325.887C97.0264 326.285 97.3065 326.588 97.6645 326.797C98.0224 327.002 98.4384 327.105 98.9123 327.105C99.2206 327.105 99.499 327.062 99.7476 326.976C99.9995 326.886 100.217 326.754 100.399 326.578C100.581 326.399 100.722 326.177 100.821 325.912L101.955 326.23C101.836 326.615 101.635 326.953 101.353 327.244C101.072 327.533 100.724 327.758 100.309 327.92C99.8951 328.08 99.4294 328.159 98.9123 328.159ZM105.06 323.406V328H103.887V320.364H105.021V321.557H105.12C105.299 321.169 105.571 320.857 105.935 320.622C106.3 320.384 106.771 320.264 107.347 320.264C107.864 320.264 108.317 320.37 108.705 320.582C109.092 320.791 109.394 321.109 109.609 321.537C109.825 321.961 109.933 322.498 109.933 323.148V328H108.759V323.227C108.759 322.627 108.603 322.16 108.292 321.825C107.98 321.487 107.553 321.318 107.009 321.318C106.635 321.318 106.3 321.399 106.005 321.562C105.713 321.724 105.483 321.961 105.314 322.273C105.145 322.584 105.06 322.962 105.06 323.406ZM116.647 328H115.354L119.093 317.818H120.365L124.104 328H122.811L119.769 319.429H119.689L116.647 328ZM117.124 324.023H122.334V325.116H117.124V324.023ZM125.559 328V320.364H126.692V321.557H126.792C126.951 321.149 127.208 320.833 127.563 320.607C127.917 320.379 128.343 320.264 128.84 320.264C129.344 320.264 129.763 320.379 130.098 320.607C130.436 320.833 130.7 321.149 130.889 321.557H130.968C131.164 321.162 131.457 320.849 131.848 320.617C132.239 320.382 132.708 320.264 133.255 320.264C133.938 320.264 134.496 320.478 134.93 320.906C135.365 321.33 135.582 321.991 135.582 322.889V328H134.408V322.889C134.408 322.326 134.254 321.923 133.946 321.681C133.638 321.439 133.275 321.318 132.857 321.318C132.32 321.318 131.904 321.481 131.609 321.805C131.314 322.127 131.167 322.535 131.167 323.028V328H129.974V322.77C129.974 322.336 129.833 321.986 129.551 321.721C129.269 321.452 128.906 321.318 128.462 321.318C128.157 321.318 127.872 321.399 127.607 321.562C127.345 321.724 127.133 321.95 126.971 322.238C126.812 322.523 126.732 322.853 126.732 323.227V328H125.559ZM140.857 328.159C140.168 328.159 139.563 327.995 139.043 327.667C138.526 327.339 138.121 326.88 137.829 326.29C137.541 325.7 137.397 325.01 137.397 324.222C137.397 323.426 137.541 322.732 137.829 322.138C138.121 321.545 138.526 321.085 139.043 320.756C139.563 320.428 140.168 320.264 140.857 320.264C141.547 320.264 142.15 320.428 142.667 320.756C143.187 321.085 143.592 321.545 143.88 322.138C144.172 322.732 144.317 323.426 144.317 324.222C144.317 325.01 144.172 325.7 143.88 326.29C143.592 326.88 143.187 327.339 142.667 327.667C142.15 327.995 141.547 328.159 140.857 328.159ZM140.857 327.105C141.381 327.105 141.812 326.971 142.15 326.702C142.488 326.434 142.738 326.081 142.901 325.643C143.063 325.206 143.144 324.732 143.144 324.222C143.144 323.711 143.063 323.236 142.901 322.795C142.738 322.354 142.488 321.998 142.15 321.726C141.812 321.454 141.381 321.318 140.857 321.318C140.334 321.318 139.903 321.454 139.565 321.726C139.227 321.998 138.976 322.354 138.814 322.795C138.651 323.236 138.57 323.711 138.57 324.222C138.57 324.732 138.651 325.206 138.814 325.643C138.976 326.081 139.227 326.434 139.565 326.702C139.903 326.971 140.334 327.105 140.857 327.105ZM150.949 324.878V320.364H152.122V328H150.949V326.707H150.869C150.69 327.095 150.412 327.425 150.034 327.697C149.656 327.965 149.179 328.099 148.602 328.099C148.125 328.099 147.701 327.995 147.33 327.786C146.958 327.574 146.667 327.256 146.455 326.832C146.243 326.404 146.136 325.866 146.136 325.216V320.364H147.31V325.136C147.31 325.693 147.466 326.137 147.777 326.469C148.092 326.8 148.493 326.966 148.98 326.966C149.272 326.966 149.568 326.891 149.87 326.742C150.175 326.593 150.43 326.364 150.636 326.056C150.845 325.748 150.949 325.355 150.949 324.878ZM155.473 323.406V328H154.299V320.364H155.433V321.557H155.532C155.711 321.169 155.983 320.857 156.348 320.622C156.712 320.384 157.183 320.264 157.759 320.264C158.276 320.264 158.729 320.37 159.117 320.582C159.504 320.791 159.806 321.109 160.022 321.537C160.237 321.961 160.345 322.498 160.345 323.148V328H159.171V323.227C159.171 322.627 159.016 322.16 158.704 321.825C158.392 321.487 157.965 321.318 157.421 321.318C157.047 321.318 156.712 321.399 156.417 321.562C156.125 321.724 155.895 321.961 155.726 322.273C155.557 322.584 155.473 322.962 155.473 323.406ZM165.838 320.364V321.358H161.88V320.364H165.838ZM163.034 318.534H164.207V325.812C164.207 326.144 164.255 326.393 164.351 326.558C164.451 326.721 164.577 326.83 164.729 326.886C164.885 326.939 165.049 326.966 165.221 326.966C165.35 326.966 165.457 326.959 165.539 326.946C165.622 326.929 165.689 326.916 165.738 326.906L165.977 327.96C165.897 327.99 165.786 328.02 165.644 328.05C165.501 328.083 165.321 328.099 165.102 328.099C164.77 328.099 164.446 328.028 164.127 327.886C163.813 327.743 163.551 327.526 163.342 327.234C163.136 326.943 163.034 326.575 163.034 326.131V318.534Z" fill="#383C45"/>
<rect x="32.5" y="340.5" width="310" height="47" rx="3.5" fill="white"/>
<rect x="32.5" y="340.5" width="310" height="47" rx="3.5" stroke="#CDD3E0"/>
<path d="M52.581 368.17C51.7926 368.17 51.1126 367.996 50.5408 367.648C49.9727 367.297 49.5341 366.807 49.2251 366.178C48.9197 365.546 48.767 364.811 48.767 363.973C48.767 363.135 48.9197 362.396 49.2251 361.757C49.5341 361.114 49.9638 360.614 50.5142 360.255C51.0682 359.893 51.7145 359.712 52.4531 359.712C52.8793 359.712 53.3001 359.783 53.7156 359.925C54.131 360.067 54.5092 360.298 54.8501 360.617C55.1911 360.933 55.4627 361.352 55.6651 361.874C55.8675 362.396 55.9688 363.039 55.9688 363.803V364.335H49.6619V363.249H54.6903C54.6903 362.787 54.598 362.375 54.4134 362.013C54.2322 361.651 53.973 361.365 53.6357 361.155C53.3018 360.946 52.9077 360.841 52.4531 360.841C51.9524 360.841 51.5192 360.965 51.1534 361.214C50.7912 361.459 50.5124 361.778 50.3171 362.173C50.1218 362.567 50.0241 362.989 50.0241 363.44V364.165C50.0241 364.783 50.1307 365.306 50.3438 365.736C50.5604 366.162 50.8604 366.487 51.244 366.711C51.6275 366.931 52.0732 367.041 52.581 367.041C52.9112 367.041 53.2095 366.995 53.4759 366.903C53.7457 366.807 53.9783 366.665 54.1737 366.477C54.369 366.285 54.5199 366.047 54.6264 365.763L55.8409 366.104C55.7131 366.516 55.4982 366.878 55.1964 367.19C54.8945 367.499 54.5217 367.741 54.0778 367.915C53.6339 368.085 53.1349 368.17 52.581 368.17ZM58.8272 368.085C58.5644 368.085 58.3389 367.991 58.1507 367.803C57.9625 367.615 57.8684 367.389 57.8684 367.126C57.8684 366.864 57.9625 366.638 58.1507 366.45C58.3389 366.262 58.5644 366.168 58.8272 366.168C59.09 366.168 59.3155 366.262 59.5037 366.45C59.6919 366.638 59.786 366.864 59.786 367.126C59.786 367.3 59.7416 367.46 59.6529 367.606C59.5676 367.751 59.4522 367.869 59.3066 367.957C59.1646 368.043 59.0048 368.085 58.8272 368.085ZM65.3745 371.239C64.7672 371.239 64.2452 371.161 63.8084 371.004C63.3716 370.852 63.0076 370.649 62.7164 370.397C62.4288 370.148 62.1997 369.882 62.0293 369.598L63.0307 368.895C63.1443 369.044 63.2882 369.214 63.4622 369.406C63.6362 369.602 63.8741 369.77 64.1759 369.912C64.4813 370.058 64.8808 370.131 65.3745 370.131C66.035 370.131 66.5801 369.971 67.0098 369.651C67.4394 369.332 67.6543 368.831 67.6543 368.149V366.487H67.5477C67.4554 366.636 67.324 366.821 67.1536 367.041C66.9867 367.258 66.7452 367.451 66.4291 367.622C66.1166 367.789 65.6941 367.872 65.1614 367.872C64.5009 367.872 63.9078 367.716 63.3823 367.403C62.8602 367.091 62.4465 366.636 62.1411 366.04C61.8393 365.443 61.6884 364.719 61.6884 363.866C61.6884 363.028 61.8357 362.299 62.1305 361.677C62.4252 361.052 62.8354 360.569 63.361 360.228C63.8865 359.884 64.4938 359.712 65.1827 359.712C65.7154 359.712 66.1379 359.8 66.4504 359.978C66.7665 360.152 67.008 360.351 67.1749 360.575C67.3453 360.795 67.4767 360.976 67.5691 361.118H67.6969V359.818H68.9114V368.234C68.9114 368.938 68.7516 369.509 68.432 369.95C68.1159 370.393 67.6898 370.718 67.1536 370.924C66.6209 371.134 66.0279 371.239 65.3745 371.239ZM65.3318 366.743C65.8361 366.743 66.2622 366.627 66.6102 366.397C66.9583 366.166 67.2228 365.834 67.4039 365.401C67.585 364.967 67.6756 364.449 67.6756 363.845C67.6756 363.256 67.5868 362.735 67.4093 362.284C67.2317 361.833 66.9689 361.48 66.6209 361.224C66.2729 360.969 65.8432 360.841 65.3318 360.841C64.7992 360.841 64.3553 360.976 64.0002 361.246C63.6486 361.516 63.384 361.878 63.2065 362.332C63.0325 362.787 62.9455 363.291 62.9455 363.845C62.9455 364.413 63.0343 364.916 63.2118 365.353C63.3929 365.786 63.6593 366.127 64.0108 366.375C64.3659 366.62 64.8063 366.743 65.3318 366.743ZM75.47 368V367.041L79.0708 363.099C79.4934 362.638 79.8414 362.237 80.1149 361.896C80.3883 361.551 80.5907 361.228 80.7221 360.926C80.857 360.621 80.9245 360.301 80.9245 359.967C80.9245 359.584 80.8322 359.252 80.6475 358.971C80.4664 358.691 80.2178 358.474 79.9018 358.321C79.5857 358.169 79.2306 358.092 78.8364 358.092C78.4174 358.092 78.0516 358.179 77.7391 358.353C77.4302 358.524 77.1905 358.763 77.02 359.072C76.8531 359.381 76.7697 359.744 76.7697 360.159H75.5126C75.5126 359.52 75.66 358.959 75.9547 358.476C76.2494 357.993 76.6507 357.616 77.1585 357.347C77.6699 357.077 78.2434 356.942 78.8791 356.942C79.5183 356.942 80.0847 357.077 80.5783 357.347C81.0719 357.616 81.459 357.98 81.7395 358.439C82.02 358.897 82.1603 359.406 82.1603 359.967C82.1603 360.369 82.0875 360.761 81.9419 361.145C81.7999 361.525 81.5513 361.949 81.1962 362.418C80.8446 362.883 80.3563 363.451 79.7313 364.122L77.281 366.743V366.828H82.3521V368H75.47ZM88.1402 368.149C87.3377 368.149 86.6541 367.931 86.0895 367.494C85.5248 367.054 85.0934 366.416 84.7951 365.582C84.4968 364.744 84.3476 363.732 84.3476 362.545C84.3476 361.366 84.4968 360.36 84.7951 359.525C85.0969 358.687 85.5302 358.048 86.0948 357.608C86.663 357.164 87.3448 356.942 88.1402 356.942C88.9357 356.942 89.6157 357.164 90.1804 357.608C90.7485 358.048 91.1818 358.687 91.4801 359.525C91.7819 360.36 91.9328 361.366 91.9328 362.545C91.9328 363.732 91.7837 364.744 91.4854 365.582C91.1871 366.416 90.7556 367.054 90.191 367.494C89.6264 367.931 88.9428 368.149 88.1402 368.149ZM88.1402 366.977C88.9357 366.977 89.5536 366.594 89.9939 365.827C90.4343 365.06 90.6544 363.966 90.6544 362.545C90.6544 361.601 90.5532 360.797 90.3508 360.132C90.152 359.468 89.8643 358.962 89.4879 358.614C89.115 358.266 88.6658 358.092 88.1402 358.092C87.3519 358.092 86.7358 358.481 86.2919 359.259C85.848 360.033 85.626 361.129 85.626 362.545C85.626 363.49 85.7255 364.293 85.9243 364.953C86.1232 365.614 86.4091 366.116 86.7819 366.461C87.1583 366.805 87.6111 366.977 88.1402 366.977Z" fill="#8791A7"/>
<path opacity="0.35" d="M338.667 17.8334H355.333C356.53 17.8334 357.5 18.8037 357.5 20.0004V26.0004C357.5 27.1968 356.53 28.1664 355.333 28.1664H338.667C337.47 28.1664 336.5 27.1968 336.5 26.0004V20.0004L336.511 19.7787C336.622 18.686 337.545 17.8334 338.667 17.8334Z" stroke="#111827"/>
<path opacity="0.4" d="M359 21.0001V25.0001C359.805 24.6613 360.328 23.8732 360.328 23.0001C360.328 22.1269 359.805 21.3388 359 21.0001Z" fill="#111827"/>
<path d="M338 20.4334C338 19.8259 338.492 19.3334 339.1 19.3334H354.9C355.508 19.3334 356 19.8259 356 20.4334V25.5667C356 26.1742 355.508 26.6667 354.9 26.6667H339.1C338.492 26.6667 338 26.1742 338 25.5667V20.4334Z" fill="#111827"/>
<path fill-rule="evenodd" clip-rule="evenodd" d="M323.331 19.608C325.547 19.6081 327.678 20.4596 329.284 21.9863C329.405 22.1042 329.598 22.1027 329.717 21.983L330.873 20.8163C330.934 20.7556 330.967 20.6734 330.967 20.5878C330.966 20.5022 330.932 20.4204 330.871 20.3603C326.656 16.3208 320.006 16.3208 315.791 20.3603C315.73 20.4203 315.695 20.5021 315.694 20.5877C315.694 20.6733 315.727 20.7556 315.788 20.8163L316.944 21.983C317.063 22.1029 317.256 22.1044 317.377 21.9863C318.983 20.4595 321.115 19.608 323.331 19.608ZM323.331 23.4037C324.548 23.4036 325.722 23.8561 326.625 24.6733C326.747 24.7893 326.939 24.7868 327.058 24.6677L328.213 23.501C328.274 23.4398 328.307 23.3568 328.307 23.2705C328.306 23.1843 328.27 23.102 328.208 23.042C325.46 20.4856 321.204 20.4856 318.456 23.042C318.394 23.102 318.358 23.1843 318.358 23.2706C318.357 23.3569 318.391 23.4399 318.452 23.501L319.606 24.6677C319.725 24.7868 319.917 24.7893 320.039 24.6733C320.941 23.8567 322.114 23.4042 323.331 23.4037ZM325.644 25.9575C325.646 26.044 325.612 26.1274 325.55 26.188L323.553 28.2037C323.494 28.2629 323.414 28.2963 323.331 28.2963C323.248 28.2963 323.168 28.2629 323.109 28.2037L321.112 26.188C321.05 26.1274 321.016 26.0439 321.018 25.9574C321.02 25.8709 321.057 25.789 321.121 25.731C322.397 24.6521 324.265 24.6521 325.541 25.731C325.605 25.7891 325.642 25.871 325.644 25.9575Z" fill="#111827"/>
<path fill-rule="evenodd" clip-rule="evenodd" d="M309.667 17.6666H308.667C308.115 17.6666 307.667 18.1143 307.667 18.6666V27.3333C307.667 27.8856 308.115 28.3333 308.667 28.3333H309.667C310.219 28.3333 310.667 27.8856 310.667 27.3333V18.6666C310.667 18.1143 310.219 17.6666 309.667 17.6666ZM304 20H305C305.553 20 306 20.4477 306 21V27.3333C306 27.8856 305.553 28.3333 305 28.3333H304C303.448 28.3333 303 27.8856 303 27.3333V21C303 20.4477 303.448 20 304 20ZM300.334 22.3333H299.334C298.781 22.3333 298.334 22.781 298.334 23.3333V27.3333C298.334 27.8856 298.781 28.3333 299.334 28.3333H300.334C300.886 28.3333 301.334 27.8856 301.334 27.3333V23.3333C301.334 22.781 300.886 22.3333 300.334 22.3333ZM295.667 24.3333H294.667C294.115 24.3333 293.667 24.781 293.667 25.3333V27.3333C293.667 27.8856 294.115 28.3333 294.667 28.3333H295.667C296.219 28.3333 296.667 27.8856 296.667 27.3333V25.3333C296.667 24.781 296.219 24.3333 295.667 24.3333Z" fill="#111827"/>
<path d="M40.5146 17.1675C42.7705 17.1675 44.7334 18.7715 44.7334 22.5801V22.5947C44.7334 26.1543 43.1294 28.2637 40.4707 28.2637C38.5298 28.2637 37.0796 27.1138 36.7427 25.4951L36.728 25.4146H38.5884L38.6104 25.4878C38.8887 26.2275 39.5405 26.7109 40.4707 26.7109C42.1479 26.7109 42.8584 25.0703 42.939 23.0488C42.939 22.9683 42.9463 22.8877 42.9463 22.8071H42.7998C42.4116 23.6421 41.4888 24.3818 40.0386 24.3818C38.0098 24.3818 36.5889 22.9023 36.5889 20.8955V20.8809C36.5889 18.7349 38.2222 17.1675 40.5146 17.1675ZM40.5073 22.9316C41.7012 22.9316 42.6167 22.0674 42.6167 20.8735V20.8589C42.6167 19.6504 41.7012 18.7056 40.5293 18.7056C39.3647 18.7056 38.4346 19.6357 38.4346 20.8149V20.8296C38.4346 22.0527 39.3062 22.9316 40.5073 22.9316ZM47.5586 21.1519C46.8921 21.1519 46.394 20.6392 46.394 19.9946C46.394 19.3428 46.8921 18.8374 47.5586 18.8374C48.2324 18.8374 48.7231 19.3428 48.7231 19.9946C48.7231 20.6392 48.2324 21.1519 47.5586 21.1519ZM47.5586 26.5864C46.8921 26.5864 46.394 26.0811 46.394 25.4292C46.394 24.7773 46.8921 24.272 47.5586 24.272C48.2324 24.272 48.7231 24.7773 48.7231 25.4292C48.7231 26.0811 48.2324 26.5864 47.5586 26.5864ZM55.5107 28V25.9712H50.3398V24.4258C51.7095 22.0454 53.2109 19.6138 54.6465 17.4312H57.3198V24.4111H58.7407V25.9712H57.3198V28H55.5107ZM52.0977 24.4551H55.54V18.9399H55.4302C54.3462 20.5952 53.123 22.5508 52.0977 24.3452V24.4551ZM62.6206 28V19.2915H62.4961L59.8667 21.1519V19.3721L62.6279 17.4312H64.5103V28H62.6206Z" fill="black"/>
<rect x="16" y="690" width="343" height="48" rx="24" fill="#111827"/>
<path d="M165.561 711.5H164.24C164.162 711.12 164.025 710.786 163.83 710.499C163.638 710.211 163.404 709.969 163.127 709.774C162.853 709.575 162.549 709.426 162.216 709.327C161.882 709.227 161.534 709.178 161.172 709.178C160.511 709.178 159.913 709.344 159.377 709.678C158.844 710.012 158.42 710.504 158.103 711.154C157.791 711.804 157.635 712.601 157.635 713.545C157.635 714.49 157.791 715.287 158.103 715.937C158.42 716.587 158.844 717.079 159.377 717.413C159.913 717.746 160.511 717.913 161.172 717.913C161.534 717.913 161.882 717.864 162.216 717.764C162.549 717.665 162.853 717.517 163.127 717.322C163.404 717.123 163.638 716.88 163.83 716.592C164.025 716.301 164.162 715.967 164.24 715.591H165.561C165.461 716.148 165.28 716.647 165.018 717.088C164.755 717.528 164.428 717.903 164.037 718.212C163.647 718.517 163.208 718.75 162.722 718.909C162.239 719.069 161.722 719.149 161.172 719.149C160.241 719.149 159.414 718.922 158.689 718.467C157.965 718.013 157.395 717.366 156.98 716.528C156.564 715.69 156.356 714.696 156.356 713.545C156.356 712.395 156.564 711.401 156.98 710.562C157.395 709.724 157.965 709.078 158.689 708.624C159.414 708.169 160.241 707.942 161.172 707.942C161.722 707.942 162.239 708.022 162.722 708.181C163.208 708.341 163.647 708.576 164.037 708.885C164.428 709.19 164.755 709.563 165.018 710.003C165.28 710.44 165.461 710.939 165.561 711.5ZM170.879 719.17C170.14 719.17 169.492 718.995 168.935 718.643C168.381 718.292 167.947 717.8 167.635 717.168C167.326 716.536 167.172 715.797 167.172 714.952C167.172 714.099 167.326 713.355 167.635 712.72C167.947 712.084 168.381 711.591 168.935 711.239C169.492 710.887 170.14 710.712 170.879 710.712C171.618 710.712 172.264 710.887 172.818 711.239C173.375 711.591 173.809 712.084 174.118 712.72C174.43 713.355 174.586 714.099 174.586 714.952C174.586 715.797 174.43 716.536 174.118 717.168C173.809 717.8 173.375 718.292 172.818 718.643C172.264 718.995 171.618 719.17 170.879 719.17ZM170.879 718.041C171.44 718.041 171.902 717.897 172.264 717.61C172.626 717.322 172.894 716.944 173.068 716.475C173.242 716.006 173.329 715.499 173.329 714.952C173.329 714.405 173.242 713.895 173.068 713.423C172.894 712.951 172.626 712.569 172.264 712.278C171.902 711.987 171.44 711.841 170.879 711.841C170.318 711.841 169.856 711.987 169.494 712.278C169.132 712.569 168.864 712.951 168.69 713.423C168.516 713.895 168.429 714.405 168.429 714.952C168.429 715.499 168.516 716.006 168.69 716.475C168.864 716.944 169.132 717.322 169.494 717.61C169.856 717.897 170.318 718.041 170.879 718.041ZM177.792 714.078V719H176.535V710.818H177.75V712.097H177.856C178.048 711.681 178.339 711.347 178.73 711.095C179.12 710.839 179.625 710.712 180.243 710.712C180.797 710.712 181.281 710.825 181.697 711.053C182.112 711.276 182.435 711.617 182.666 712.075C182.897 712.53 183.013 713.105 183.013 713.801V719H181.755V713.886C181.755 713.244 181.589 712.743 181.255 712.384C180.921 712.022 180.463 711.841 179.88 711.841C179.479 711.841 179.12 711.928 178.804 712.102C178.492 712.276 178.245 712.53 178.064 712.864C177.883 713.197 177.792 713.602 177.792 714.078ZM188.898 710.818V711.884H184.658V710.818H188.898ZM185.894 708.858H187.151V716.656C187.151 717.011 187.202 717.278 187.305 717.455C187.412 717.629 187.547 717.746 187.71 717.807C187.877 717.864 188.053 717.892 188.237 717.892C188.376 717.892 188.49 717.885 188.578 717.871C188.667 717.853 188.738 717.839 188.791 717.828L189.047 718.957C188.962 718.989 188.843 719.021 188.69 719.053C188.537 719.089 188.344 719.107 188.11 719.107C187.754 719.107 187.406 719.03 187.066 718.877C186.728 718.725 186.448 718.492 186.224 718.18C186.004 717.867 185.894 717.473 185.894 716.997V708.858ZM190.819 719V710.818H192.076V719H190.819ZM191.458 709.455C191.213 709.455 191.002 709.371 190.824 709.204C190.65 709.037 190.563 708.837 190.563 708.602C190.563 708.368 190.65 708.167 190.824 708C191.002 707.833 191.213 707.75 191.458 707.75C191.703 707.75 191.913 707.833 192.087 708C192.264 708.167 192.353 708.368 192.353 708.602C192.353 708.837 192.264 709.037 192.087 709.204C191.913 709.371 191.703 709.455 191.458 709.455ZM195.666 714.078V719H194.408V710.818H195.623V712.097H195.729C195.921 711.681 196.212 711.347 196.603 711.095C196.994 710.839 197.498 710.712 198.116 710.712C198.67 710.712 199.155 710.825 199.57 711.053C199.986 711.276 200.309 711.617 200.539 712.075C200.77 712.53 200.886 713.105 200.886 713.801V719H199.629V713.886C199.629 713.244 199.462 712.743 199.128 712.384C198.794 712.022 198.336 711.841 197.754 711.841C197.352 711.841 196.994 711.928 196.678 712.102C196.365 712.276 196.118 712.53 195.937 712.864C195.756 713.197 195.666 713.602 195.666 714.078ZM208.369 715.655V710.818H209.626V719H208.369V717.615H208.284C208.092 718.031 207.794 718.384 207.389 718.675C206.984 718.963 206.473 719.107 205.855 719.107C205.344 719.107 204.889 718.995 204.491 718.771C204.094 718.544 203.781 718.203 203.554 717.748C203.327 717.29 203.213 716.713 203.213 716.017V710.818H204.47V715.932C204.47 716.528 204.637 717.004 204.971 717.359C205.308 717.714 205.738 717.892 206.26 717.892C206.572 717.892 206.89 717.812 207.213 717.652C207.54 717.493 207.813 717.248 208.034 716.917C208.257 716.587 208.369 716.166 208.369 715.655ZM215.389 719.17C214.601 719.17 213.921 718.996 213.349 718.648C212.781 718.297 212.342 717.807 212.033 717.178C211.728 716.546 211.575 715.811 211.575 714.973C211.575 714.135 211.728 713.396 212.033 712.757C212.342 712.114 212.772 711.614 213.322 711.255C213.876 710.893 214.523 710.712 215.261 710.712C215.687 710.712 216.108 710.783 216.524 710.925C216.939 711.067 217.317 711.298 217.658 711.617C217.999 711.933 218.271 712.352 218.473 712.874C218.676 713.396 218.777 714.039 218.777 714.803V715.335H212.47V714.249H217.498C217.498 713.787 217.406 713.375 217.221 713.013C217.04 712.651 216.781 712.365 216.444 712.155C216.11 711.946 215.716 711.841 215.261 711.841C214.761 711.841 214.327 711.965 213.962 712.214C213.599 712.459 213.321 712.778 213.125 713.173C212.93 713.567 212.832 713.989 212.832 714.44V715.165C212.832 715.783 212.939 716.306 213.152 716.736C213.368 717.162 213.669 717.487 214.052 717.711C214.436 717.931 214.881 718.041 215.389 718.041C215.719 718.041 216.018 717.995 216.284 717.903C216.554 717.807 216.786 717.665 216.982 717.477C217.177 717.285 217.328 717.047 217.435 716.763L218.649 717.104C218.521 717.516 218.306 717.878 218.005 718.19C217.703 718.499 217.33 718.741 216.886 718.915C216.442 719.085 215.943 719.17 215.389 719.17Z" fill="white"/>
<defs>
<clipPath id="clip0_85_1948">
<rect width="24" height="24" fill="white" transform="translate(41 149)"/>
</clipPath>
</defs>
</svg>
